<?xml version="1.0" standalone="no"?>
<!DOCTYPE svg PUBLIC "-//W3C//DTD SVG 20010904//EN"
 "http://www.w3.org/TR/2001/REC-SVG-20010904/DTD/svg10.dtd">
<svg version="1.0" xmlns="http://www.w3.org/2000/svg"
 width="64.000000pt" height="64.000000pt" viewBox="0 0 64.000000 64.000000"
 preserveAspectRatio="xMidYMid meet">

<g transform="translate(0.000000,64.000000) scale(0.100000,-0.100000)"
fill="#000000" stroke="none">
<path d="M223 602 c-251 -90 -272 -432 -35 -549 81 -40 183 -40 264 0 107 53
163 144 163 267 0 85 -21 142 -74 203 -72 81 -213 117 -318 79z m187 -18 c75
-22 149 -98 174 -178 22 -71 17 -144 -14 -206 l-22 -43 -15 32 c-15 30 -97
111 -113 111 -4 0 1 17 12 38 38 72 6 155 -70 182 -112 39 -209 -77 -154 -182
11 -21 16 -38 12 -38 -16 0 -98 -81 -112 -110 l-15 -31 -16 24 c-8 13 -20 41
-26 63 -28 99 -2 194 73 270 80 79 173 102 286 68z m-40 -89 c32 -17 60 -61
60 -95 0 -53 -57 -110 -110 -110 -53 0 -110 57 -110 110 0 33 28 78 58 94 35
20 66 20 102 1z m-68 -222 c15 -3 41 0 58 6 25 8 38 7 59 -3 37 -20 87 -72
102 -108 10 -25 9 -32 -10 -52 -90 -96 -292 -96 -382 0 -19 20 -20 27 -10 51
25 58 110 129 140 118 9 -4 28 -9 43 -12z"/>
</g>
</svg>
