<?xml version="1.0" standalone="yes"?>
<svg xmlns="http://www.w3.org/2000/svg" width="140" height="61">
<path style="fill:#ffffff; stroke:none;" d="M0 0L0 61L62 61C54.838 57.1115 47.6281 59.0859 40 59C41.3525 47.9009 43.9533 34.847 40 24C47.172 22.7279 57.1057 22.743 64 25C61.9984 28.9264 65.7561 33.5355 66 38L71 36C71 37.7968 71.0143 37.5215 72 39C74.4192 36.5808 71.1938 31.3113 73 28C74.7744 24.747 77.8225 26.6935 80 28L79 29C81.7376 28.7702 84.2671 28.707 87 29C86.5194 31.2007 86.5194 31.7993 87 34C88.9698 29.4911 89.1573 27.2517 94 25C92.6234 24.0886 91.5601 23.5962 90 23C96.4043 10.656 111.657 6.15151 121.873 17.0941C124.5 19.9086 123.974 22.5217 125.394 25.7145C126.611 28.4525 129.287 30.2455 130.567 33.0039C132.526 37.2243 132.91 43.3948 133 48L135 48L135 50C130.201 51.9056 122.886 55.0686 121 60C127.014 61.7777 133.757 61 140 61L140 0L0 0z"/>
<path style="fill:#f1d3f2; stroke:none;" d="M105 10C106.506 10.683 107.315 10.8259 109 11C107.494 10.317 106.685 10.1741 105 10z"/>
<path style="fill:#c6a3c9; stroke:none;" d="M102 11L103 12L102 11z"/>
<path style="fill:#8f5696; stroke:none;" d="M92 22C93.7833 21.0198 93.5943 21.0924 94 19C95.4785 19.9857 95.2032 20 97 20C98.5482 18.3334 99.901 16.9787 101 15L104 16C109.967 11.4848 116.148 16.798 122 19C119.375 15.8313 115.84 13.9322 113 11C104.66 12.4802 93.7222 10.9325 92 22z"/>
<path style="fill:#6c416f; stroke:none;" d="M105 11C107.052 11.8742 108.747 11.9528 111 12C108.948 11.1258 107.253 11.0472 105 11z"/>
<path style="fill:#caa2cb; stroke:none;" d="M113 11L114 12L113 11z"/>
<path style="fill:#d5bfd7; stroke:none;" d="M99 12L100 13L99 12z"/>
<path style="fill:#724776; stroke:none;" d="M113 12C114.949 13.5733 116.588 14.2909 119 15C117.02 13.1158 115.69 12.5307 113 12z"/>
<path style="fill:#d8bedc; stroke:none;" d="M116 12L117 13L116 12z"/>
<path style="fill:#bfa4be; stroke:none;" d="M97 13L98 14L97 13z"/>
<path style="fill:#ae88ae; stroke:none;" d="M96 14L97 15L96 14z"/>
<path style="fill:#6f3e70; stroke:none;" d="M104 14C106.89 15.2129 109.874 14.9983 113 15C110.11 13.787 107.126 14.0017 104 14z"/>
<path style="fill:#ad8db3; stroke:none;" d="M119 14L120 15L119 14z"/>
<path style="fill:#68456a; stroke:none;" d="M101.667 15.3333C101.222 15.7778 102.278 15.7222 102.333 15.6667C102.778 15.2222 101.722 15.2778 101.667 15.3333z"/>
<path style="fill:#eacff1; stroke:none;" d="M104.667 15.3333C104.222 15.7777 105.278 15.7222 105.333 15.6667C105.778 15.2222 104.722 15.2778 104.667 15.3333z"/>
<path style="fill:#fffcff; stroke:none;" d="M91 26C92.586 29.7429 92.9862 32.9577 93 37C97.0403 34.3301 100.649 31.1673 105 29C104.778 34.1712 101.011 36.2582 97 39C100.248 45.4097 106.57 47.3778 108 55C109.015 53.8606 109.309 53.3884 110 52C112.673 53.5041 114.981 54.4648 118 55C117.762 57.0947 117.816 58.8893 118 61L122 61C122.618 55.2625 130.32 52.6973 135 50C134.232 48.6859 134.314 48.7679 133 48C133.323 45.9676 133.34 45.0182 133 43C130.565 45.9123 129.535 49.6357 125.956 51.5432C112.182 58.8846 103.218 38.5711 112.279 29.2284C115.739 25.66 120.427 26.003 125 26C118.602 18.4066 110.098 11.8452 100.093 17.5432C96.4153 19.6379 94.2022 23.3579 91 26z"/>
<path style="fill:#946c9a; stroke:none;" d="M111.667 15.3333C111.222 15.7777 112.278 15.7222 112.333 15.6667C112.778 15.2222 111.722 15.2778 111.667 15.3333z"/>
<path style="fill:#75497d; stroke:none;" d="M113 15C114.458 16.0811 115.248 16.436 117 17C115.457 15.7333 114.952 15.5108 113 15z"/>
<path style="fill:#804c86; stroke:none;" d="M118 15L122 19L117 17L121 23C125.458 19.732 122.31 16.2499 118 15z"/>
<path style="fill:#a78aa9; stroke:none;" d="M101 16L102 17L101 16z"/>
<path style="fill:#b38fba; stroke:none;" d="M114 16L115 17L114 16z"/>
<path style="fill:#ab78aa; stroke:none;" d="M116 17L117 18L116 17z"/>
<path style="fill:#613161; stroke:none;" d="M97 18L98 19L97 18z"/>
<path style="fill:#cda9cf; stroke:none;" d="M98 18L99 19L98 18z"/>
<path style="fill:#dbb2d7; stroke:none;" d="M117 18L118 19L117 18z"/>
<path style="fill:#b89dc7; stroke:none;" d="M91 19L92 20L91 19z"/>
<path style="fill:#764e7c; stroke:none;" d="M94 19C93.3205 21.0384 93.5058 21.3385 92 20C91.317 21.506 91.1741 22.3148 91 24C93.9393 23.0715 95.4783 21.9851 94 19z"/>
<path style="fill:#b590af; stroke:none;" d="M124 19L125 20L124 19z"/>
<path style="fill:#c7a9c4; stroke:none;" d="M96 20L97 21L96 20z"/>
<path style="fill:#734e73; stroke:none;" d="M124 20L122 24C124.649 23.4324 125.355 22.4122 124 20z"/>
<path style="fill:#a482ab; stroke:none;" d="M90.3333 21.6667C90.2778 21.7223 90.2222 22.7778 90.6667 22.3333C90.7222 22.2778 90.7778 21.2222 90.3333 21.6667z"/>
<path style="fill:#c19dc2; stroke:none;" d="M120 21L121 22L120 21z"/>
<path style="fill:#c4aebd; stroke:none;" d="M125.333 21.6667C125.278 21.7222 125.222 22.7778 125.667 22.3333C125.722 22.2778 125.778 21.2222 125.333 21.6667z"/>
<path style="fill:#fefeff; stroke:none;" d="M40 24C43.1004 35.7236 40.748 47.2346 40 59C43.7239 59.2507 47.3864 58.3122 51 58.571C55.6565 58.9045 60.3001 60.5477 65.0039 60.9074C82.4624 62.2423 100.487 61 118 61L118 55L110 52C109.014 53.4785 109 53.2032 109 55C104.111 51.0961 98.5669 46.8418 93 44C92.9693 46.5998 90.2826 55.9322 88.3171 48.9221C86.8763 43.7829 88.5438 38.2229 87 33C80.2991 38.1965 73.5154 47.999 85 52C78.699 53.8625 71.5415 53 65 53C67.7837 51.5822 70.8625 50.2029 71.8819 46.9568C72.5603 44.7968 71.4755 40.1913 68.2731 41.3457C65.3839 42.3872 65.0901 48.2463 62.6559 50.3472C57.7378 54.5918 49.0153 53 43 53L43 26C49.8 26 57.3777 27.2923 64 26C59.8362 22.0072 57.1614 23.8678 52 23.8565C47.7242 23.8471 44.2744 22.9942 40 24z"/>
<path style="fill:#f4d8b6; stroke:none;" d="M10.6667 26.3333C10.2222 26.7778 11.2778 26.7222 11.3333 26.6667C11.7778 26.2222 10.7222 26.2778 10.6667 26.3333z"/>
<path style="fill:#f7e4ba; stroke:none;" d="M18 26C19.2484 26.6848 19.5484 26.7488 21 27C19.7516 26.3152 19.4516 26.2512 18 26z"/>
<path style="fill:#f6dbc5; stroke:none;" d="M36.6667 26.3333C36.2222 26.7778 37.2778 26.7222 37.3333 26.6667C37.7778 26.2222 36.7222 26.2778 36.6667 26.3333z"/>
<path style="fill:#cffff3; stroke:none;" d="M43 26L43 53C45.5408 46.945 45.5408 32.055 43 26z"/>
<path style="fill:#74b3a2; stroke:none;" d="M44 26C48.4714 27.8763 54.1834 27 59 27C54.5286 25.1237 48.8166 26 44 26z"/>
<path style="fill:#a1bdb5; stroke:none;" d="M74 26L75 27L74 26z"/>
<path style="fill:#74948c; stroke:none;" d="M75 26L76 27L75 26z"/>
<path style="fill:#b6cfcc; stroke:none;" d="M76 26L77 27L76 26z"/>
<path style="fill:#b7a5bb; stroke:none;" d="M89.6667 26.3333C89.2222 26.7778 90.2778 26.7222 90.3333 26.6667C90.7778 26.2222 89.7222 26.2778 89.6667 26.3333z"/>
<path style="fill:#b98eba; stroke:none;" d="M115 26C117.613 27.0977 120.165 26.9928 123 27C120.387 25.9023 117.835 26.0072 115 26z"/>
<path style="fill:#d2b3cf; stroke:none;" d="M123.667 26.3333C123.222 26.7778 124.278 26.7222 124.333 26.6667C124.778 26.2222 123.722 26.2778 123.667 26.3333z"/>
<path style="fill:#ffe1ba; stroke:none;" d="M8 27L8 51C10.3486 45.4031 10.3486 32.5969 8 27z"/>
<path style="fill:#dbaa70; stroke:none;" d="M9 27L9 52L13 52L13 27L9 27z"/>
<path style="fill:#fff2cc; stroke:none;" d="M13 27L13 51C15.3486 45.4031 15.3486 32.5969 13 27z"/>
<path style="fill:#f2d5aa; stroke:none;" d="M17 27L17 52C19.4129 46.2497 19.4129 32.7503 17 27z"/>
<path style="fill:#d4aa6b; stroke:none;" d="M18 27L18 29L22 29L22 27L18 27z"/>
<path style="fill:#debe8d; stroke:none;" d="M35 27L35 41C36.6668 37.0279 36.6668 30.9721 35 27z"/>
<path style="fill:#deaa6a; stroke:none;" d="M36 27L36 44C38.1001 46.8955 37.2138 48.8012 36 52C39.7201 51.2028 39 48.3902 39 45L39 27L36 27z"/>
<path style="fill:#f6d4aa; stroke:none;" d="M39 27L39 52C41.4129 46.2497 41.4129 32.7503 39 27z"/>
<path style="fill:#0c5542; stroke:none;" d="M44 27L44 31C44.6848 29.7517 44.7488 29.4516 45 28C50.7514 28 56.2944 28.2839 62 29C57.3838 25.5027 49.6059 27 44 27z"/>
<path style="fill:#a5d3c8; stroke:none;" d="M61 27L62 28L61 27z"/>
<path style="fill:#b3d1c8; stroke:none;" d="M73 27L74 28L73 27z"/>
<path style="fill:#00553c; stroke:none;" d="M74 27L74 34C74.8742 31.9479 74.9528 30.2528 75 28C75.6438 30.1059 75.9059 31.7951 76 34C76.9845 31.6685 76.9813 29.5433 77 27L74 27z"/>
<path style="fill:#e6ffff; stroke:none;" d="M77 27C77.572 29.3771 77.8905 31.558 78 34C80.3226 32.5231 82.4872 31.1059 85 30C82.6526 34.0813 79.5153 37.5063 78 42C82.6521 38.5147 85.3067 34.5351 87 29C84.1369 28.4385 81.8766 28.5239 79 29L80 27L77 27z"/>
<path style="fill:#a18cad; stroke:none;" d="M88 27L89 28L88 27z"/>
<path style="fill:#6f3972; stroke:none;" d="M89 27C90.6751 30.0112 90.9621 32.5801 91 36C92.2129 33.1103 91.9983 30.1259 92 27L89 27z"/>
<path style="fill:#d7c1d6; stroke:none;" d="M113 27L114 28L113 27z"/>
<path style="fill:#7d5084; stroke:none;" d="M110 44C111.552 40.3025 111 35.9832 111 32C117.429 32.4477 120.53 29.7522 127 33C125.845 30.867 125.118 30.2175 123 29L127 29C122.752 25.7821 113.912 25.7915 111.028 31.0586C109.07 34.6334 110 40.0566 110 44z"/>
<path style="fill:#b393b7; stroke:none;" d="M126 27L127 28L126 27z"/>
<path style="fill:#e8ad5c; stroke:none;" d="M10 28C10.8487 34.7156 11 41.2286 11 48C13.398 42.2853 12 34.1692 12 28L10 28z"/>
<path style="fill:#ffffea; stroke:none;" d="M15 28L14 43C14.9845 40.6684 14.9813 38.5433 15 36C16.5071 41.0987 14.3602 46.9581 16.1219 51.7716C16.9597 54.0606 19.9784 55.6232 21.8218 53.3812C24.4285 50.2107 23.2964 44.7446 26 41C24.5215 40.0143 24.7968 40 23 40C22.3841 42.0837 22.144 43.8327 21.9946 46.0039C21.7962 48.8882 18.9193 54.6367 17.3171 48.9221C15.6567 42.9996 19.9343 32.3118 15 28z"/>
<path style="fill:#f1b566; stroke:none;" d="M37 28L37 42C38.6668 38.0279 38.6668 31.9721 37 28z"/>
<path style="fill:#136c5c; stroke:none;" d="M45 28C44.1935 33.6509 44.9626 39.4121 46 45C47.8296 40.6399 47.3989 34.7559 48 30C52.7694 30 57.2999 30.1274 62 31C58.7132 26.297 50.1534 28 45 28z"/>
<path style="fill:#53897c; stroke:none;" d="M62 28L63 29L62 28z"/>
<path style="fill:#629c8c; stroke:none;" d="M73 28L73 39C74.4309 35.59 74.4309 31.41 73 28z"/>
<path style="fill:#157a60; stroke:none;" d="M75 28L75 34C75.9511 31.7147 75.9511 30.2853 75 28z"/>
<path style="fill:#60a095; stroke:none;" d="M77 28C77.0318 30.875 76.7923 33.0745 79 35C78.4052 32.6044 78.0095 30.233 77 28z"/>
<path style="fill:#8c5091; stroke:none;" d="M88 28C88.001 36.8741 91.7033 47.7274 103 46C100.889 43.7081 98.815 42.343 96 41L97 37C91.4262 36.8958 91.056 32.7861 91 28L88 28z"/>
<path style="fill:#b999b9; stroke:none;" d="M92 28L92 37C93.2561 34.0059 93.2561 30.9941 92 28z"/>
<path style="fill:#8f7791; stroke:none;" d="M112 28L113 29L112 28z"/>
<path style="fill:#97589d; stroke:none;" d="M117 28C118.769 28.7789 120.036 28.9124 122 29C120.231 28.2211 118.964 28.0876 117 28z"/>
<path style="fill:#956090; stroke:none;" d="M123 28L127 33C127.681 29.8867 125.755 29.0054 123 28z"/>
<path style="fill:#98719c; stroke:none;" d="M127 28L128 29L127 28z"/>
<path style="fill:#e3ad61; stroke:none;" d="M18 29L18 50C20.1493 44.8779 19.9216 35.4465 19 30C21.1534 32.3998 20.7038 33.9346 20 37C26.1457 38.4324 28.032 45.18 34 47C33.0525 39.9058 25.484 29.5263 18 29z"/>
<path style="fill:#006e50; stroke:none;" d="M62 29C61.4549 30.6352 61.6352 30.4549 60 31L62 35L64 35C64.4723 31.9887 64.1658 31.1497 62 29z"/>
<path style="fill:#4f8d7e; stroke:none;" d="M63 29L64 30L63 29z"/>
<path style="fill:#c0adbb; stroke:none;" d="M103.667 29.3333C103.222 29.7778 104.278 29.7222 104.333 29.6667C104.778 29.2222 103.722 29.2778 103.667 29.3333z"/>
<path style="fill:#b398b3; stroke:none;" d="M111 29L112 30L111 29z"/>
<path style="fill:#734375; stroke:none;" d="M127 29C129.342 34.9924 130 39.5331 130 46C132.151 40.8732 132.172 32.0218 127 29z"/>
<path style="fill:#f4b559; stroke:none;" d="M19 30L19 49C20.671 45.0177 22.4484 32.6413 19 30z"/>
<path style="fill:#ffe6be; stroke:none;" d="M23.6667 30.3333C23.2222 30.7778 24.2778 30.7222 24.3333 30.6667C24.7778 30.2222 23.7222 30.2778 23.6667 30.3333z"/>
<path style="fill:#fff8c8; stroke:none;" d="M34 30L34 34C34.7102 32.2405 34.7102 31.7595 34 30z"/>
<path style="fill:#346e62; stroke:none;" d="M48 30C51.1633 31.3274 54.5856 30.9996 58 31C54.8367 29.6726 51.4144 30.0004 48 30z"/>
<path style="fill:#004b32; stroke:none;" d="M58.6667 30.3333C58.2222 30.7778 59.2778 30.7222 59.3333 30.6667C59.7778 30.2222 58.7222 30.2778 58.6667 30.3333z"/>
<path style="fill:#8bc5b6; stroke:none;" d="M64 30L65 31L64 30z"/>
<path style="fill:#587d7a; stroke:none;" d="M82 30L83 31L82 30z"/>
<path style="fill:#02322d; stroke:none;" d="M83.3333 30.6667C83.2778 30.7222 83.2222 31.7778 83.6667 31.3333C83.7222 31.2778 83.7778 30.2222 83.3333 30.6667z"/>
<path style="fill:#74958f; stroke:none;" d="M84 30L85 31L84 30z"/>
<path style="fill:#d6b3d8; stroke:none;" d="M101 30L102 31L101 30z"/>
<path style="fill:#734f71; stroke:none;" d="M101 31C102.693 32.0624 104.04 32.5196 106 33C104.455 30.6307 103.786 30.5421 101 31z"/>
<path style="fill:#b39daf; stroke:none;" d="M105 30L106 31L105 30z"/>
<path style="fill:#d1b3d0; stroke:none;" d="M110 30L111 31L110 30z"/>
<path style="fill:#92648f; stroke:none;" d="M117 30C119.052 30.8742 120.747 30.9528 123 31C120.948 30.1258 119.253 30.0472 117 30z"/>
<path style="fill:#f3b366; stroke:none;" d="M10 31L10 51C12.499 46.6246 11.9531 35.6545 10 31z"/>
<path style="fill:#a3d7cd; stroke:none;" d="M48 31L48 48C49.8826 43.5135 49.8826 35.4865 48 31z"/>
<path style="fill:#ecffff; stroke:none;" d="M49 31L49 44C50.8108 39.6847 49.4805 35.6868 53 32L49 31z"/>
<path style="fill:#fffeff; stroke:none;" d="M52 31C52 33.0854 52.1381 32.7241 50 33C49.9994 38.0823 49.3982 42.9549 49 48C51.9274 48 56.9491 48.9107 59.3966 46.9722C62.2474 44.7143 61.8175 35.0342 59.3966 32.6034C57.5193 30.7184 54.4247 31.0287 52 31z"/>
<path style="fill:#6ebfac; stroke:none;" d="M59 31L60 32L59 31z"/>
<path style="fill:#5f8f7c; stroke:none;" d="M81 31L82 32L81 31z"/>
<path style="fill:#276a4a; stroke:none;" d="M82 31L77 35C80.3171 36.5512 81.9122 34.6848 84 32L82 31z"/>
<path style="fill:#406865; stroke:none;" d="M84 31L85 32L84 31z"/>
<path style="fill:#ba93bb; stroke:none;" d="M100 31L101 32L100 31z"/>
<path style="fill:#c297c9; stroke:none;" d="M115 31L116 32L115 31z"/>
<path style="fill:#fff8ff; stroke:none;" d="M116.318 32.0278C109.619 36.4836 115.284 53.3552 124.566 46.9722C131.342 42.3128 125.51 25.9139 116.318 32.0278z"/>
<path style="fill:#dcb6d8; stroke:none;" d="M124 31L125 32L124 31z"/>
<path style="fill:#d0b0d1; stroke:none;" d="M130 31L131 32L130 31z"/>
<path style="fill:#70b5a2; stroke:none;" d="M60 32L61 33L60 32z"/>
<path style="fill:#7cbbab; stroke:none;" d="M65 32L66 33L65 32z"/>
<path style="fill:#679e84; stroke:none;" d="M80 32L81 33L80 32z"/>
<path style="fill:#895080; stroke:none;" d="M94 38L97 37L96 39C99.5704 37.6263 102.317 35.7257 105 33C100.015 31.6849 96.4409 33.4892 94 38z"/>
<path style="fill:#975594; stroke:none;" d="M111 32L111 45C112.543 41.3235 113 35.4584 111 32z"/>
<path style="fill:#b08bb7; stroke:none;" d="M114 32L115 33L114 32z"/>
<path style="fill:#deb07f; stroke:none;" d="M26 33C26.4057 35.0924 26.2167 35.0198 28 36C27.3087 34.6116 27.0154 34.1394 26 33z"/>
<path style="fill:#075b43; stroke:none;" d="M44 33L44 52C46.0196 47.1871 46.0196 37.8129 44 33z"/>
<path style="fill:#05594a; stroke:none;" d="M47 33L47 49C48.8123 44.6811 48.8123 37.3189 47 33z"/>
<path style="fill:#1a6352; stroke:none;" d="M65 33C63.5655 37.8531 64 42.9643 64 48C66.5006 43.8256 66.8823 37.4858 65 33z"/>
<path style="fill:#7fb4a7; stroke:none;" d="M79 33L80 34L79 33z"/>
<path style="fill:#d2c0dd; stroke:none;" d="M97 33L98 34L97 33z"/>
<path style="fill:#94749d; stroke:none;" d="M109 33L109 47C110.667 43.0279 110.667 36.9721 109 33z"/>
<path style="fill:#b189b0; stroke:none;" d="M113 33L113 46C114.591 42.2087 114.591 36.7913 113 33z"/>
<path style="fill:#caa7cd; stroke:none;" d="M126 33L127 34L126 33z"/>
<path style="fill:#794378; stroke:none;" d="M127 33L127 43C128.346 39.793 128.346 36.207 127 33z"/>
<path style="fill:#91528f; stroke:none;" d="M128 33C127.995 40.8315 128.648 49.4699 119 50C120.248 50.6848 120.548 50.7488 122 51L120 52C121.769 52.7789 123.036 52.9124 125 53L124 51C126.945 49.822 128.556 48.639 130 49C130.586 43.752 130 38.2977 130 33L128 33z"/>
<path style="fill:#99c3ba; stroke:none;" d="M61 34L61 45C62.4309 41.59 62.4309 37.41 61 34z"/>
<path style="fill:#077155; stroke:none;" d="M74 34C73.8186 38.5284 72.6271 42.4185 77 45C77.8252 40.1072 80.0563 35.7131 74 34z"/>
<path style="fill:#96ceb8; stroke:none;" d="M82 34L83 35L82 34z"/>
<path style="fill:#bb9ebd; stroke:none;" d="M96 34L97 35L96 34z"/>
<path style="fill:#bd94ba; stroke:none;" d="M103 34L104 35L103 34z"/>
<path style="fill:#784278; stroke:none;" d="M112 34L112 45C113.431 41.59 113.431 37.41 112 34z"/>
<path style="fill:#005b3d; stroke:none;" d="M62 35L62 45C63.3457 41.793 63.3457 38.207 62 35z"/>
<path style="fill:#097458; stroke:none;" d="M63 35C62.9956 40.6406 60.7284 44.7331 60 50C52.6063 49.9992 47.7904 50.1347 46 42C44.6726 45.1633 45.0004 48.5856 45 52C49.7406 52 61.2092 54.0752 63.6867 48.7716C64.716 46.5683 64.0524 43.3595 64.0008 41.0046C63.9518 38.7716 63.8533 37.0334 63 35z"/>
<path style="fill:#9ed1c0; stroke:none;" d="M81 35L82 36L81 35z"/>
<path style="fill:#dbb1db; stroke:none;" d="M102 35L103 36L102 35z"/>
<path style="fill:#e9ceee; stroke:none;" d="M131 35L131 44C132.256 41.0059 132.256 37.9941 131 35z"/>
<path style="fill:#d3b57c; stroke:none;" d="M21 36C21 40.9454 22.089 46.9226 19 51C23.8107 52.8135 22.3123 38.7175 21 36z"/>
<path style="fill:#fff5d3; stroke:none;" d="M22 36L22 41L26 41C24.8964 38.6428 24.0436 37.6239 22 36z"/>
<path style="fill:#557b73; stroke:none;" d="M69 36L70 37L69 36z"/>
<path style="fill:#b5d9d2; stroke:none;" d="M70 36L71 37L70 36z"/>
<path style="fill:#8fc4b7; stroke:none;" d="M80 36L81 37L80 36z"/>
<path style="fill:#e9b66f; stroke:none;" d="M20 37C20 42.3745 19.6052 46.8556 18 52C22.1812 48.9846 21.8779 41.4753 20 37z"/>
<path style="fill:#518c7c; stroke:none;" d="M68.3333 37.6667C68.2778 37.7222 68.2222 38.7778 68.6667 38.3333C68.7222 38.2778 68.7778 37.2222 68.3333 37.6667z"/>
<path style="fill:#166b54; stroke:none;" d="M69 37C70.2499 40.8091 72.4174 43.9891 73 48C75.5128 49.1059 77.6774 50.5231 80 52C78.4695 46.5235 73.9616 39.8127 69 37z"/>
<path style="fill:#62a091; stroke:none;" d="M79 37L80 38L79 37z"/>
<path style="fill:#b086a8; stroke:none;" d="M99 37L100 38L99 37z"/>
<path style="fill:#d9ffff; stroke:none;" d="M66 38L66 42C67.4566 40.8966 67.8966 40.4566 69 39C67.5215 38.0143 67.7968 38 66 38z"/>
<path style="fill:#7d5785; stroke:none;" d="M88 38L88 52C91.7192 47.1903 91.1335 43.6146 90 38L88 38z"/>
<path style="fill:#fffad1; stroke:none;" d="M34 39C32.9644 40.1863 32.6614 40.6036 32 42C34.2508 41.5268 35.1178 41.1397 34 39z"/>
<path style="fill:#468473; stroke:none;" d="M69 39L70 40L69 39z"/>
<path style="fill:#328e77; stroke:none;" d="M72.6667 39.3333C72.2222 39.7778 73.2778 39.7222 73.3333 39.6667C73.7778 39.2222 72.7222 39.2778 72.6667 39.3333z"/>
<path style="fill:#8fcbbf; stroke:none;" d="M78 39L79 40L78 39z"/>
<path style="fill:#be8cbd; stroke:none;" d="M96 40L97 41L96 40z"/>
<path style="fill:#fff4d0; stroke:none;" d="M26 41C27.1036 43.3572 27.9564 44.3761 30 46C28.8964 43.6428 28.0436 42.6239 26 41z"/>
<path style="fill:#fcb766; stroke:none;" d="M35 41C34.2474 43.409 33.6031 45.0758 32 47L34 51C35.2175 47.9726 36.3675 43.9409 35 41z"/>
<path style="fill:#539e8d; stroke:none;" d="M77 41L77 45C77.7102 43.2405 77.7102 42.7595 77 41z"/>
<path style="fill:#9c7b9f; stroke:none;" d="M97 41L98 42L97 41z"/>
<path style="fill:#ffe6a4; stroke:none;" d="M33.6667 42.3333C33.2222 42.7778 34.2778 42.7222 34.3333 42.6667C34.7778 42.2222 33.7222 42.2778 33.6667 42.3333z"/>
<path style="fill:#9fdacb; stroke:none;" d="M72 43L73 44L72 43z"/>
<path style="fill:#dfabdb; stroke:none;" d="M92.6667 43.3333C92.2222 43.7778 93.2778 43.7222 93.3333 43.6667C93.7778 43.2222 92.7222 43.2778 92.6667 43.3333z"/>
<path style="fill:#824a86; stroke:none;" d="M94 43C97.372 47.406 101.807 50.9917 107 53L108 52C106.159 48.1889 104.292 46.6382 100 47C98.8199 44.75 96.4389 43.8417 94 43z"/>
<path style="fill:#d8bedc; stroke:none;" d="M100 43L101 44L100 43z"/>
<path style="fill:#f1ad55; stroke:none;" d="M35 44C34.7993 46.4187 34.7283 48.591 35 51C37.7232 49.0394 37.8932 47.3006 38 44L35 44z"/>
<path style="fill:#b18fb4; stroke:none;" d="M92 44L92 52C93.1614 49.2301 93.1614 46.7698 92 44z"/>
<path style="fill:#d3acd4; stroke:none;" d="M94 44L95 45L94 44z"/>
<path style="fill:#67496b; stroke:none;" d="M110 44L110 48C110.71 46.2405 110.71 45.7595 110 44z"/>
<path style="fill:#4c9b86; stroke:none;" d="M61 45L62 46L61 45z"/>
<path style="fill:#5e9586; stroke:none;" d="M65.3333 45.6667C65.2778 45.7222 65.2222 46.7778 65.6667 46.3333C65.7222 46.2778 65.7778 45.2222 65.3333 45.6667z"/>
<path style="fill:#81568c; stroke:none;" d="M111 45C111.094 47.2049 111.356 48.8941 112 51L118 51C115.936 48.3178 114.054 46.4638 111 45z"/>
<path style="fill:#d1a9d7; stroke:none;" d="M126 45L127 46L126 45z"/>
<path style="fill:#ade8d9; stroke:none;" d="M72 46L73 47L72 46z"/>
<path style="fill:#6e4c6f; stroke:none;" d="M91 46L89 52C92.3315 51.2861 92.5915 48.7622 91 46z"/>
<path style="fill:#d3bdd9; stroke:none;" d="M114 46L115 47L114 46z"/>
<path style="fill:#a174a6; stroke:none;" d="M126 46L127 47L126 46z"/>
<path style="fill:#acddd0; stroke:none;" d="M65 47L66 48L65 47z"/>
<path style="fill:#5fa693; stroke:none;" d="M72 47L73 48L72 47z"/>
<path style="fill:#89bcb0; stroke:none;" d="M78 47L79 48L78 47z"/>
<path style="fill:#a364a1; stroke:none;" d="M90.3333 47.6667C90.2778 47.7222 90.2222 48.7778 90.6667 48.3333C90.7222 48.2778 90.7778 47.2222 90.3333 47.6667z"/>
<path style="fill:#ae93b2; stroke:none;" d="M98 47L99 48L98 47z"/>
<path style="fill:#ccaed3; stroke:none;" d="M105 47L106 48L105 47z"/>
<path style="fill:#c3a6ca; stroke:none;" d="M115 47L116 48L115 47z"/>
<path style="fill:#a983ac; stroke:none;" d="M125 47L126 48L125 47z"/>
<path style="fill:#7d4379; stroke:none;" d="M126 47C122.619 48.6276 119.733 48.967 116 49C116.65 50.2997 116.147 50 118 50C116.153 50.2104 114.857 50.194 113 50C115.308 52.6789 118.641 52.3729 122 52C120.752 51.3152 120.452 51.2512 119 51C121.342 50.134 127.168 50.1412 126 47z"/>
<path style="fill:#c6a7cb; stroke:none;" d="M130 47L131 48L130 47z"/>
<path style="fill:#89c0b3; stroke:none;" d="M48 48C51.4324 49.4403 55.2998 49 59 49C55.5676 47.5597 51.7002 48 48 48z"/>
<path style="fill:#aadfd5; stroke:none;" d="M71 48L72 49L71 48z"/>
<path style="fill:#007452; stroke:none;" d="M70 52L79 52C75.7585 48.1093 72.9669 47.6774 70 52z"/>
<path style="fill:#caa9d0; stroke:none;" d="M99 48L100 49L99 48z"/>
<path style="fill:#b08bb3; stroke:none;" d="M106 48L107 49L106 48z"/>
<path style="fill:#a28aa2; stroke:none;" d="M110 48L111 49L110 48z"/>
<path style="fill:#d0afda; stroke:none;" d="M116 48C118.613 49.0977 121.165 48.9928 124 49C121.387 47.9023 118.836 48.0072 116 48z"/>
<path style="fill:#5f405f; stroke:none;" d="M128.333 48.6667C128.278 48.7223 128.222 49.7777 128.667 49.3333C128.722 49.2778 128.778 48.2222 128.333 48.6667z"/>
<path style="fill:#02553f; stroke:none;" d="M49 49C52.4324 50.4403 56.2998 50 60 50C56.5676 48.5597 52.7002 49 49 49z"/>
<path style="fill:#438677; stroke:none;" d="M71 49L72 50L71 49z"/>
<path style="fill:#5e9e90; stroke:none;" d="M79 49L80 50L79 49z"/>
<path style="fill:#b996b8; stroke:none;" d="M107 49L108 50L107 49z"/>
<path style="fill:#ceb6ce; stroke:none;" d="M129 49L130 50L129 49z"/>
<path style="fill:#fff1da; stroke:none;" d="M33 50C33.8993 52.1236 33.8764 52.1007 36 53C35.0985 51.0775 34.9238 51.0012 33 50z"/>
<path style="fill:#9cdacd; stroke:none;" d="M63 50L64 51L63 50z"/>
<path style="fill:#417f73; stroke:none;" d="M70 50L71 51L70 50z"/>
<path style="fill:#528c83; stroke:none;" d="M80 50L81 51L80 50z"/>
<path style="fill:#5f3b5c; stroke:none;" d="M126.667 50.3333C126.222 50.7778 127.278 50.7222 127.333 50.6667C127.778 50.2222 126.722 50.2778 126.667 50.3333z"/>
<path style="fill:#c6aec4; stroke:none;" d="M128 50L129 51L128 50z"/>
<path style="fill:#4c8a7d; stroke:none;" d="M61 51L62 52L61 51z"/>
<path style="fill:#84a49f; stroke:none;" d="M68 51L69 52L68 51z"/>
<path style="fill:#2f4a45; stroke:none;" d="M69 51L67 52C68.482 52.7912 69.7964 52.8698 69 51z"/>
<path style="fill:#2e6657; stroke:none;" d="M70 52C74.2165 53.7693 79.4589 53 84 53C80.086 50.5646 74.5345 51.997 70 52z"/>
<path style="fill:#99bab3; stroke:none;" d="M82 51L83 52L82 51z"/>
<path style="fill:#bb95b4; stroke:none;" d="M103 51L104 52L103 51z"/>
<path style="fill:#6a3f68; stroke:none;" d="M124.667 51.3333C124.222 51.7778 125.278 51.7222 125.333 51.6667C125.778 51.2222 124.722 51.2778 124.667 51.3333z"/>
<path style="fill:#977092; stroke:none;" d="M126 51L127 52L126 51z"/>
<path style="fill:#ead2aa; stroke:none;" d="M9 52C10.2484 52.6848 10.5484 52.7488 12 53C10.7516 52.3152 10.4516 52.2512 9 52z"/>
<path style="fill:#dcc592; stroke:none;" d="M18 52C19.2484 52.6848 19.5484 52.7488 21 53C19.7516 52.3152 19.4516 52.2512 18 52z"/>
<path style="fill:#e6c7a0; stroke:none;" d="M36 52C37.2484 52.6848 37.5484 52.7488 39 53C37.7516 52.3152 37.4516 52.2512 36 52z"/>
<path style="fill:#266958; stroke:none;" d="M44 52C48.4714 53.8763 54.1834 53 59 53C54.5286 51.1237 48.8166 52 44 52z"/>
<path style="fill:#5c9a89; stroke:none;" d="M59 52L60 53L59 52z"/>
<path style="fill:#95a1a1; stroke:none;" d="M65.6667 52.3333C65.2222 52.7778 66.2778 52.7222 66.3333 52.6667C66.7778 52.2222 65.7222 52.2778 65.6667 52.3333z"/>
<path style="fill:#9baba5; stroke:none;" d="M84 52L85 53L84 52z"/>
<path style="fill:#977c9b; stroke:none;" d="M89 52C90.2484 52.6848 90.5484 52.7488 92 53C90.7517 52.3152 90.4516 52.2512 89 52z"/>
<path style="fill:#d2b9cf; stroke:none;" d="M104 52L105 53L104 52z"/>
<path style="fill:#886187; stroke:none;" d="M115 52C116.506 52.683 117.315 52.8259 119 53C117.494 52.317 116.685 52.1741 115 52z"/>
</svg>
