<?xml version="1.0" standalone="no"?>
<!DOCTYPE svg PUBLIC "-//W3C//DTD SVG 20010904//EN"
 "http://www.w3.org/TR/2001/REC-SVG-20010904/DTD/svg10.dtd">
<svg version="1.0" xmlns="http://www.w3.org/2000/svg"
 width="64.000000pt" height="64.000000pt" viewBox="0 0 64.000000 64.000000"
 preserveAspectRatio="xMidYMid meet">

<g transform="translate(0.000000,64.000000) scale(0.100000,-0.100000)"
fill="#000000" stroke="none">
<path d="M57 603 c-20 -19 -4 -32 46 -35 l52 -3 3 -133 3 -134 -31 -35 c-25
-28 -30 -41 -25 -62 6 -28 39 -61 61 -61 8 0 11 -6 8 -15 -10 -25 16 -72 46
-85 39 -16 86 8 95 50 4 16 4 34 0 40 -4 6 8 10 29 10 28 0 34 -3 30 -15 -10
-25 16 -72 46 -85 39 -16 86 8 95 50 4 16 4 34 0 40 -3 5 1 10 9 10 9 0 16 9
16 20 0 19 -7 20 -188 20 -133 0 -192 4 -200 12 -16 16 -15 23 4 42 13 13 44
16 185 16 203 0 197 -4 228 130 26 114 26 116 -3 135 -19 12 -48 15 -142 13
-104 -3 -119 -5 -122 -20 -3 -16 8 -18 122 -18 69 0 126 -3 126 -7 -1 -19 -38
-172 -44 -182 -5 -7 -57 -11 -157 -11 l-149 0 0 148 c0 102 -4 152 -12 160
-13 13 -120 17 -131 5z m217 -486 c9 -15 7 -21 -8 -32 -35 -26 -74 13 -44 43
16 16 38 12 52 -11z m200 0 c9 -15 7 -21 -8 -32 -35 -26 -74 13 -44 43 16 16
38 12 52 -11z"/>
<path d="M227 523 c-16 -16 -5 -33 21 -33 35 0 45 9 31 27 -12 14 -41 18 -52
6z"/>
</g>
</svg>
